{"accessors":[{"bufferView":0,"componentType":5125,"count":319074,"max":[69759],"min":[0],"type":"SCALAR"},{"bufferView":1,"componentType":5126,"count":69760,"max":[126.56151580810547,-10.689030647277832,-0.31593048572540283],"min":[-67.262939453125,-103.10128021240234,-84.06742095947266],"type":"VEC3"},{"bufferView":2,"componentType":5126,"count":69760,"max":[0.9994984865188599,0.9999786019325256,1.0000001192092896],"min":[-0.9994985461235046,-0.9999804496765137,-0.9999999403953552],"type":"VEC3"},{"bufferView":3,"componentType":5126,"count":69760,"max":[1.0,0.999983012676239,0.999945342540741,1.0],"min":[-1.0,-1.0,-0.9999801516532898,-1.0],"type":"VEC4"},{"bufferView":4,"componentType":5126,"count":69760,"max":[1.0,1.0],"min":[0.0,0.0],"type":"VEC2"},{"bufferView":5,"componentType":5123,"count":20166,"max":[4281],"min":[0],"type":"SCALAR"},{"bufferView":6,"componentType":5126,"count":4282,"max":[92.58959197998047,-42.52156066894531,-42.00395584106445],"min":[-33.291015625,-76.75132751464844,-72.27832794189453],"type":"VEC3"},{"bufferView":7,"componentType":5126,"count":4282,"max":[1.0000001192092896,1.0000001192092896,1.0],"min":[-1.0,-1.0000001192092896,-1.0],"type":"VEC3"},{"bufferView":8,"componentType":5126,"count":4282,"max":[1.0,0.25608140230178833,1.0,1.0],"min":[-1.0,-0.9999887347221375,-1.0,-1.0],"type":"VEC4"},{"bufferView":9,"componentType":5126,"count":4282,"max":[0.6242565512657166,1.0],"min":[0.0,0.00146484375],"type":"VEC2"},{"bufferView":10,"componentType":5123,"count":23982,"max":[5323],"min":[0],"type":"SCALAR"},{"bufferView":11,"componentType":5126,"count":5324,"max":[70.2903060913086,-69.56722259521484,-29.737518310546875],"min":[-10.962334632873535,-89.36919403076172,-56.03231430053711],"type":"VEC3"},{"bufferView":12,"componentType":5126,"count":5324,"max":[0.9968810677528381,0.982563853263855,0.9833229780197144],"min":[-0.9953488111495972,-0.9989326596260071,-0.9999516010284424],"type":"VEC3"},{"bufferView":13,"componentType":5126,"count":5324,"max":[0.9999446868896484,0.986058235168457,0.9795364141464233,1.0],"min":[-0.9944589138031006,-0.9995617866516113,-0.9997395277023315,-1.0],"type":"VEC4"},{"bufferView":14,"componentType":5126,"count":5324,"max":[1.0,1.0],"min":[0.0,0.0],"type":"VEC2"},{"bufferView":15,"componentType":5123,"count":74322,"max":[17842],"min":[0],"type":"SCALAR"},{"bufferView":16,"componentType":5126,"count":17843,"max":[125.21859741210938,-10.674792289733887,-9.326056480407715],"min":[-65.9200210571289,-103.26296997070312,-84.12702178955078],"type":"VEC3"},{"bufferView":17,"componentType":5126,"count":17843,"max":[0.999702513217926,0.9997841119766235,0.8437777757644653],"min":[-0.9997040629386902,-0.9999146461486816,-0.996746301651001],"type":"VEC3"},{"bufferView":18,"componentType":5126,"count":17843,"max":[1.0,0.9997514486312866,0.9982082843780518,1.0],"min":[-0.9998571276664734,-0.999751627445221,-0.9981495141983032,-1.0],"type":"VEC4"},{"bufferView":19,"componentType":5126,"count":17843,"max":[0.8974012136459351,1.0],"min":[0.0,0.00146484375],"type":"VEC2"},{"bufferView":20,"componentType":5123,"count":17898,"max":[4235],"min":[0],"type":"SCALAR"},{"bufferView":21,"componentType":5126,"count":4236,"max":[84.44351959228516,-69.1278076171875,-60.74297332763672],"min":[-25.144943237304688,-81.6035385131836,-77.39779663085938],"type":"VEC3"},{"bufferView":22,"componentType":5126,"count":4236,"max":[0.9922415018081665,0.9908185005187988,0.9912436604499817],"min":[-0.992241621017456,-0.9939081072807312,-0.9830713868141174],"type":"VEC3"},{"bufferView":23,"componentType":5126,"count":4236,"max":[0.9999246001243591,0.991324245929718,0.9908841252326965,1.0],"min":[-0.9999206066131592,-0.9932659864425659,-0.9928974509239197,-1.0],"type":"VEC4"},{"bufferView":24,"componentType":5126,"count":4236,"max":[0.99853515625,1.0],"min":[0.0,0.06071847677230835],"type":"VEC2"},{"bufferView":25,"componentType":5121,"count":6,"max":[3],"min":[0],"type":"SCALAR"},{"bufferView":26,"componentType":5126,"count":4,"max":[1.0,0.0,1.0],"min":[-1.0,0.0,-1.0],"type":"VEC3"},{"bufferView":27,"componentType":5126,"count":4,"max":[0.0,1.0,-0.0],"min":[0.0,1.0,-0.0],"type":"VEC3"},{"bufferView":28,"componentType":5126,"count":4,"max":[1.0,0.0,-0.0,1.0],"min":[1.0,0.0,-0.0,1.0],"type":"VEC4"},{"bufferView":29,"componentType":5126,"count":4,"max":[1.0,1.0],"min":[0.0,0.0],"type":"VEC2"}],"asset":{"generator":"Soft8Soft Verge3D for Blender add-on","version":"2.0"},"bufferViews":[{"buffer":0,"byteLength":1276296,"byteOffset":0,"target":34963},{"buffer":0,"byteLength":837120,"byteOffset":1276296,"target":34962},{"buffer":0,"byteLength":837120,"byteOffset":2113416,"target":34962},{"buffer":0,"byteLength":1116160,"byteOffset":2950536,"target":34962},{"buffer":0,"byteLength":558080,"byteOffset":4066696,"target":34962},{"buffer":0,"byteLength":40332,"byteOffset":4624776,"target":34963},{"buffer":0,"byteLength":51384,"byteOffset":4665108,"target":34962},{"buffer":0,"byteLength":51384,"byteOffset":4716492,"target":34962},{"buffer":0,"byteLength":68512,"byteOffset":4767876,"target":34962},{"buffer":0,"byteLength":34256,"byteOffset":4836388,"target":34962},{"buffer":0,"byteLength":47964,"byteOffset":4870644,"target":34963},{"buffer":0,"byteLength":63888,"byteOffset":4918608,"target":34962},{"buffer":0,"byteLength":63888,"byteOffset":4982496,"target":34962},{"buffer":0,"byteLength":85184,"byteOffset":5046384,"target":34962},{"buffer":0,"byteLength":42592,"byteOffset":5131568,"target":34962},{"buffer":0,"byteLength":148644,"byteOffset":5174160,"target":34963},{"buffer":0,"byteLength":214116,"byteOffset":5322804,"target":34962},{"buffer":0,"byteLength":214116,"byteOffset":5536920,"target":34962},{"buffer":0,"byteLength":285488,"byteOffset":5751036,"target":34962},{"buffer":0,"byteLength":142744,"byteOffset":6036524,"target":34962},{"buffer":0,"byteLength":35796,"byteOffset":6179268,"target":34963},{"buffer":0,"byteLength":50832,"byteOffset":6215064,"target":34962},{"buffer":0,"byteLength":50832,"byteOffset":6265896,"target":34962},{"buffer":0,"byteLength":67776,"byteOffset":6316728,"target":34962},{"buffer":0,"byteLength":33888,"byteOffset":6384504,"target":34962},{"buffer":0,"byteLength":6,"byteOffset":6418392,"target":34963},{"buffer":0,"byteLength":48,"byteOffset":6418400,"target":34962},{"buffer":0,"byteLength":48,"byteOffset":6418448,"target":34962},{"buffer":0,"byteLength":64,"byteOffset":6418496,"target":34962},{"buffer":0,"byteLength":32,"byteOffset":6418560,"target":34962}],"buffers":[{"byteLength":6418592,"uri":"Dual Move.bin"}],"cameras":[{"extensions":{"S8S_v3d_camera_data":{"controls":"ORBIT","enablePan":true,"moveSpeed":1.0,"orbitMaxDistance":100.0,"orbitMaxPolarAngle":3.1415927410125732,"orbitMaxZoom":100.0,"orbitMinDistance":0.0,"orbitMinPolarAngle":0.0,"orbitMinZoom":0.009999999776482582,"orbitTarget":[0.0,0.0,-0.0],"rotateSpeed":1.0,"viewportFitInitialAspect":1.7777777777777777,"viewportFitType":"AUTO"}},"name":"Camera","perspective":{"aspectRatio":1.7777777777777777,"yfov":0.5033799372418416,"zfar":100.0,"znear":0.10000000149011612},"type":"perspective"}],"extensions":{"S8S_v3d_data":{"lights":[{"color":[1.0,1.0,1.0],"decay":2,"distance":10.00000011175871,"intensity":100.0,"name":"Lamp","profile":"blender","shadow":{"bias":-0.0018,"cameraFar":10.00000011175871,"cameraFov":0,"cameraNear":1.0007989406585693,"enabled":true,"expBias":2.5,"mapSize":512,"radius":1.0,"slopeScaledBias":2.5},"type":"point"}]}},"extensionsUsed":["S8S_v3d_texture_data","S8S_v3d_material_data","S8S_v3d_camera_data","S8S_v3d_data","S8S_v3d_mesh_data","S8S_v3d_node_data","S8S_v3d_scene_data"],"images":[{"uri":"environment.hdr"}],"materials":[{"extensions":{"S8S_v3d_material_data":{"nodeGraph":{"edges":[{"fromNode":0,"fromOutput":0,"toInput":0,"toNode":1}],"nodes":[{"inputs":[[0.0,0.0,0.0,1.0],0.0,[1.0,0.20000000298023224,0.10000000149011612],[0.800000011920929,0.800000011920929,0.800000011920929,1.0],0.0,0.8999999761581421,0.0,0.8999999761581421,0.0,0.0,0.0,0.5,0.0,0.029999999329447746,1.4500000476837158,0.0,0.0,[0.0,0.0,0.0,1.0],1.0,1.0,[0.0,0.0,0.0],[0.0,0.0,0.0],[0.0,0.0,0.0]],"is_active_output":false,"name":"Principled BSDF","outputs":[[0,0,0,0]],"type":"BSDF_PRINCIPLED_BL"},{"inputs":[[0,0,0,0],[0,0,0,0],[0.0,0.0,0.0]],"is_active_output":true,"name":"Material Output","outputs":[],"type":"OUTPUT_MATERIAL_BL"}]},"useCastShadows":true}},"name":"/Plastic_Simple_GrainL_Black.001"},{"extensions":{"S8S_v3d_material_data":{"nodeGraph":{"edges":[{"fromNode":0,"fromOutput":0,"toInput":0,"toNode":1}],"nodes":[{"inputs":[[0.0,0.0,0.0,1.0],0.0,[1.0,0.20000000298023224,0.10000000149011612],[0.800000011920929,0.800000011920929,0.800000011920929,1.0],0.0,0.800000011920929,0.0,0.6000000238418579,0.0,0.0,0.0,0.5,0.0,0.029999999329447746,1.4500000476837158,0.0,0.0,[0.0,0.0,0.0,1.0],1.0,1.0,[0.0,0.0,0.0],[0.0,0.0,0.0],[0.0,0.0,0.0]],"is_active_output":false,"name":"Principled BSDF","outputs":[[0,0,0,0]],"type":"BSDF_PRINCIPLED_BL"},{"inputs":[[0,0,0,0],[0,0,0,0],[0.0,0.0,0.0]],"is_active_output":true,"name":"Material Output","outputs":[],"type":"OUTPUT_MATERIAL_BL"}]},"useCastShadows":true}},"name":"/Plastic_Simple_GrainS_Black.001"},{"extensions":{"S8S_v3d_material_data":{"nodeGraph":{"edges":[{"fromNode":0,"fromOutput":0,"toInput":0,"toNode":1}],"nodes":[{"inputs":[[0.009642846882343292,0.009642846882343292,0.009642846882343292,1.0],0.0,[1.0,0.20000000298023224,0.10000000149011612],[0.800000011920929,0.800000011920929,0.800000011920929,1.0],0.0,1.0,0.0,0.15000000596046448,0.0,0.0,0.0,0.5,0.800000011920929,0.029999999329447746,1.4500000476837158,0.0,0.0,[0.0,0.0,0.0,1.0],1.0,1.0,[0.0,0.0,0.0],[0.0,0.0,0.0],[0.0,0.0,0.0]],"is_active_output":false,"name":"Principled BSDF","outputs":[[0,0,0,0]],"type":"BSDF_PRINCIPLED_BL"},{"inputs":[[0,0,0,0],[0,0,0,0],[0.0,0.0,0.0]],"is_active_output":true,"name":"Material Output","outputs":[],"type":"OUTPUT_MATERIAL_BL"}]},"useCastShadows":true}},"name":"/Plastic_Simple_Shiny_Black.001"},{"extensions":{"S8S_v3d_material_data":{"nodeGraph":{"edges":[{"fromNode":1,"fromOutput":0,"toInput":0,"toNode":0}],"nodes":[{"inputs":[[0,0,0,0],[0,0,0,0],[0.0,0.0,0.0]],"is_active_output":true,"name":"Material Output","outputs":[],"type":"OUTPUT_MATERIAL_BL"},{"inputs":[[1.0,1.0,1.0,1.0],0.0,[0.0,0.0,0.0]],"is_active_output":false,"name":"Diffuse BSDF","outputs":[[0,0,0,0]],"type":"BSDF_DIFFUSE_BL"}]},"useCastShadows":true}},"name":"Material.008"},{"extensions":{"S8S_v3d_material_data":{"nodeGraph":{"edges":[{"fromNode":0,"fromOutput":0,"toInput":0,"toNode":1},{"fromNode":4,"fromOutput":0,"toInput":1,"toNode":2},{"fromNode":3,"fromOutput":0,"toInput":0,"toNode":2},{"fromNode":2,"fromOutput":0,"toInput":0,"toNode":0}],"nodes":[{"inputs":[[0.05087608844041824,0.05087608844041824,0.05087608844041824,1.0],1.0],"is_active_output":false,"name":"Background","outputs":[[0,0,0,0]],"type":"BACKGROUND_BL"},{"inputs":[[0,0,0,0],[0,0,0,0]],"is_active_output":true,"name":"World Output","outputs":[],"type":"OUTPUT_WORLD_BL"},{"blendType":"MIX","inputs":[0.5,[0.5,0.5,0.5,1.0],[0.05126946419477463,0.05126946419477463,0.05126946419477463,1.0]],"is_active_output":false,"name":"Mix","outputs":[[0.0,0.0,0.0,0.0]],"type":"MIX_RGB_BL","useClamp":false},{"inputs":[],"is_active_output":false,"name":"Light Path","outputs":[0.0,0.0,0.0,0.0,0.0,0.0,0.0,0.0,0.0,0.0,0.0,0.0,0.0],"type":"LIGHT_PATH_BL"},{"inputs":[[0.0,0.0,0.0]],"is_active_output":false,"name":"Environment Texture","outputs":[[0.0,0.0,0.0,0.0]],"projection":"EQUIRECTANGULAR","texture":0,"type":"TEX_ENVIRONMENT_BL"}]},"useCastShadows":true}},"name":"Verge3D_Environment_World"}],"meshes":[{"extensions":{"S8S_v3d_mesh_data":{"colorLayers":{},"uvLayers":{"UVMap":"TEXCOORD_0"}}},"name":"Default","primitives":[{"attributes":{"NORMAL":2,"POSITION":1,"TANGENT":3,"TEXCOORD_0":4},"indices":0,"material":1,"mode":4}]},{"extensions":{"S8S_v3d_mesh_data":{"colorLayers":{},"uvLayers":{"UVMap":"TEXCOORD_0"}}},"name":"default_2","primitives":[{"attributes":{"NORMAL":7,"POSITION":6,"TANGENT":8,"TEXCOORD_0":9},"indices":5,"material":1,"mode":4}]},{"extensions":{"S8S_v3d_mesh_data":{"colorLayers":{},"uvLayers":{"UVMap":"TEXCOORD_0"}}},"name":"Dugmici","primitives":[{"attributes":{"NORMAL":12,"POSITION":11,"TANGENT":13,"TEXCOORD_0":14},"indices":10,"material":2,"mode":4}]},{"extensions":{"S8S_v3d_mesh_data":{"colorLayers":{},"uvLayers":{"UVMap":"TEXCOORD_0"}}},"name":"Lakirane_povrsine","primitives":[{"attributes":{"NORMAL":17,"POSITION":16,"TANGENT":18,"TEXCOORD_0":19},"indices":15,"material":2,"mode":4}]},{"extensions":{"S8S_v3d_mesh_data":{"colorLayers":{},"uvLayers":{"UVMap":"TEXCOORD_0"}}},"name":"Pecurkice","primitives":[{"attributes":{"NORMAL":22,"POSITION":21,"TANGENT":23,"TEXCOORD_0":24},"indices":20,"material":0,"mode":4}]},{"extensions":{"S8S_v3d_mesh_data":{"colorLayers":{},"uvLayers":{"UVMap":"TEXCOORD_0"}}},"name":"Plane.004","primitives":[{"attributes":{"NORMAL":27,"POSITION":26,"TANGENT":28,"TEXCOORD_0":29},"indices":25,"material":3,"mode":4}]}],"nodes":[{"extensions":{"S8S_v3d_node_data":{"frustumCulling":true,"groupNames":[],"hidden":false,"renderOrder":0,"useShadows":true}},"mesh":3,"name":"Lakirane_povrsine","rotation":[0.5969707369804382,-0.49278223514556885,0.5042673349380493,0.382761150598526],"scale":[0.022690454497933388,0.02269045263528824,0.02269045077264309],"translation":[0.4371519684791565,0.567072331905365,0.8685582280158997]},{"extensions":{"S8S_v3d_node_data":{"frustumCulling":true,"groupNames":[],"hidden":false,"renderOrder":0,"useShadows":true}},"mesh":2,"name":"Dugmici","rotation":[0.5969707369804382,-0.49278223514556885,0.5042673349380493,0.382761150598526],"scale":[0.022690454497933388,0.02269045263528824,0.02269045077264309],"translation":[0.4371519684791565,0.567072331905365,0.8685582280158997]},{"extensions":{"S8S_v3d_node_data":{"frustumCulling":true,"groupNames":[],"hidden":false,"renderOrder":0,"useShadows":true}},"mesh":4,"name":"Pecurkice","rotation":[0.5969707369804382,-0.49278223514556885,0.5042673349380493,0.382761150598526],"scale":[0.022690454497933388,0.02269045263528824,0.02269045077264309],"translation":[0.4371519684791565,0.567072331905365,0.8685582280158997]},{"extensions":{"S8S_v3d_node_data":{"frustumCulling":true,"groupNames":["Collection 1"],"hidden":false,"light":0,"renderOrder":0}},"name":"Lamp","rotation":[-0.2841663062572479,0.7269423604011536,0.34203389286994934,0.5232754945755005],"scale":[0.9999999403953552,0.9999997019767761,0.9999999403953552],"translation":[4.076245307922363,5.903861999511719,-1.0054539442062378]},{"extensions":{"S8S_v3d_node_data":{"frustumCulling":true,"groupNames":[],"hidden":false,"renderOrder":0,"useShadows":true}},"mesh":1,"name":"default_2","rotation":[0.5969707369804382,-0.49278223514556885,0.5042673349380493,0.382761150598526],"scale":[0.022690454497933388,0.02269045263528824,0.02269045077264309],"translation":[0.4371519684791565,0.567072331905365,0.8685582280158997]},{"extensions":{"S8S_v3d_node_data":{"frustumCulling":true,"groupNames":[],"hidden":false,"renderOrder":0,"useShadows":true}},"mesh":0,"name":"Default","rotation":[0.5969707369804382,-0.49278223514556885,0.5042673349380493,0.382761150598526],"scale":[0.022690454497933388,0.02269045263528824,0.02269045077264309],"translation":[0.4371519684791565,0.567072331905365,0.8685582280158997]},{"extensions":{"S8S_v3d_node_data":{"frustumCulling":true,"groupNames":[],"hidden":false,"renderOrder":0,"useShadows":true}},"mesh":5,"name":"Plane.004","scale":[38.48743438720703,38.48743438720703,38.48743438720703],"translation":[0.0,-1.1964691877365112,-0.0]},{"camera":0,"extensions":{"S8S_v3d_node_data":{"frustumCulling":true,"groupNames":["Collection 1"],"hidden":false,"renderOrder":0}},"name":"Camera","rotation":[-0.20997294783592224,0.3857799768447876,0.09062846004962921,0.8937962055206299],"scale":[1.0,0.9999999403953552,0.9999998807907104],"translation":[7.226052284240723,5.1113457679748535,6.946681022644043]}],"samplers":[{}],"scene":0,"scenes":[{"extensions":{"S8S_v3d_scene_data":{"aaMethod":"AUTO","iblEnvironmentMode":"PMREM","physicallyCorrectLights":true,"pmremMaxTileSize":256,"shadowMap":{"esmDistanceScale":1.0,"renderReverseSided":false,"renderSingleSided":true,"type":"PCFPOISSON"},"worldMaterial":4}},"extras":{"animFrameRate":24,"coordSystem":"Z_UP_RIGHT"},"name":"Scene","nodes":[6,5,4,2,1,0,3,7]}],"textures":[{"extensions":{"S8S_v3d_texture_data":{"colorSpace":"linear"}},"name":"environment.hdr","sampler":0,"source":0}]}
